<svg xmlns="http://www.w3.org/2000/svg" width="296" height="92" viewBox="0 0 296 92" fill="none"><g><path d="M291.885 40.986C293.906 40.986 295.56 39.33 295.56 37.306V32.798H284.169V22.862H277.876C275.855 22.862 274.202 24.518 274.202 26.542V32.844H272.364C270.343 32.844 268.69 34.5 268.69 36.524V41.032H274.202V55.614C274.202 57.96 274.248 60.122 274.294 61.962C274.339 63.848 274.845 65.688 275.809 67.482C276.866 69.414 278.427 70.794 280.494 71.668C282.561 72.542 284.904 73.002 287.522 73.048C290.14 73.094 292.804 72.864 295.56 72.358V68.08C295.56 67.5889 295.462 67.1027 295.271 66.6501C295.081 66.1976 294.802 65.7877 294.451 65.4448C294.1 65.1018 293.684 64.8327 293.228 64.6533C292.771 64.4738 292.283 64.3877 291.793 64.4C290.875 64.446 290.002 64.4 289.175 64.354C287.246 64.216 285.868 63.48 284.949 62.1C284.49 61.364 284.215 60.398 284.215 59.156C284.169 57.914 284.169 56.534 284.169 55.016V40.986H291.885ZM136.276 19.688H125.712L106.742 72.358H114.826C116.342 72.358 117.72 71.392 118.271 69.966L121.44 61.364H144.911L148.08 69.966C148.631 71.392 149.963 72.358 151.525 72.358H159.563L142.017 23.736C141.586 22.5555 140.806 21.5351 139.779 20.8116C138.753 20.0881 137.531 19.696 136.276 19.688ZM124.793 52.348L133.153 29.762L141.512 52.348H124.793ZM211.922 31.832C203.562 31.832 198.188 35.558 195.387 42.826L201.404 44.942C202.114 45.1871 202.882 45.2083 203.605 45.0027C204.328 44.7971 204.97 44.3745 205.445 43.792C206.731 42.182 208.201 40.848 211.83 40.848C216.377 40.848 218.26 42.458 218.628 46.782L206.456 48.898C195.203 50.738 193.825 57.684 193.825 61.502C193.825 65.32 196.719 73.508 207.604 73.508C213.116 73.508 217.066 71.484 219.638 69C219.703 69.921 220.113 70.7834 220.786 71.4146C221.459 72.0458 222.345 72.3992 223.267 72.404H228.273V46.92C228.273 36.294 221.567 31.832 211.922 31.832ZM209.12 65.642C205.308 65.642 203.424 64.354 203.424 61.916C203.424 59.478 205.216 56.902 211.325 55.844C214.678 55.246 217.342 54.74 219.087 54.418V56.902C219.087 62.054 213.989 65.642 209.12 65.642ZM186.384 32.89C184.868 32.89 183.49 33.856 182.939 35.282L173.983 59.616L165.026 35.282C164.763 34.5797 164.292 33.9745 163.677 33.5471C163.061 33.1198 162.33 32.8905 161.581 32.89H153.959L169.022 72.404H178.943L194.009 32.89H186.384ZM266.623 60.904C266.622 59.0002 266.158 57.1253 265.27 55.442C264.382 53.7587 263.097 52.3177 261.527 51.244C261.435 51.152 261.298 51.106 261.206 51.014C261.155 50.9655 261.091 50.9334 261.022 50.922C260.654 50.6954 260.27 50.4955 259.874 50.324C258.45 49.634 256.888 49.036 256.888 49.036C256.245 48.806 255.556 48.53 254.867 48.3C248.115 46.046 244.854 45.494 244.854 43.24C244.854 41.216 247.243 40.204 249.769 40.204C251.376 40.204 253.673 40.71 255.51 43.01L255.556 43.056L255.694 43.194L255.74 43.24C256.383 43.93 257.302 44.344 258.312 44.344C258.725 44.344 259.093 44.252 259.46 44.16H259.506L265.015 42.274C263.135 35.926 257.256 31.786 249.399 31.786C246.37 31.786 243.844 32.246 241.869 33.074C239.839 33.8324 238.09 35.1961 236.858 36.981C235.626 38.7659 234.97 40.8862 234.979 43.056C234.979 47.38 237.551 51.06 241.226 52.762C243.017 53.682 245.176 54.464 247.702 55.2C254.775 57.316 256.475 58.696 256.475 61.18C256.475 61.502 256.429 61.778 256.383 62.054C256.241 62.5481 255.989 63.0039 255.648 63.388C254.638 64.446 252.8 64.952 250.366 64.952C247.335 64.952 244.625 63.71 242.787 60.582C242.356 59.8659 241.689 59.3226 240.901 59.0456C240.113 58.7686 239.254 58.7751 238.47 59.064L232.958 60.996C235.255 67.666 239.848 73.508 250.32 73.508C255.097 73.508 258.909 72.45 261.619 70.61C263.167 69.5104 264.429 68.0553 265.3 66.3665C266.17 64.6777 266.624 62.8046 266.623 60.904Z" fill="#04121A"></path><path d="M83.2357 72.8257C83.2357 48.2515 81.0668 4.03783 46.6466 3.59572C13.3466 3.15872 6.17367 47.6612 8.50339 72.6443C9.83804 74.5221 11.3102 76.298 12.9077 77.9573C21.1829 86.5363 45.6106 85.5294 45.6106 85.5294C45.6106 85.5294 72.8859 85.5549 81.3781 75.2433C82.0211 74.4613 82.6412 73.6563 83.2332 72.8232L83.2357 72.8257Z" fill="white"></path><path d="M39.4028 11.4644C40.7867 10.5147 42.3601 9.87717 44.0141 9.59582C45.6681 9.31448 47.3633 9.39603 48.9828 9.83486C50.6023 10.2737 52.1073 11.0593 53.394 12.1375C54.6808 13.2157 55.7185 14.5607 56.4355 16.0797L83.2363 72.831C88.7939 65.1108 91.8096 55.8471 91.8636 46.3299C92.0423 20.9174 71.6208 0.179077 46.2516 0.000188061C20.8823 -0.178701 0.180198 20.2734 0.00157723 45.6807C-0.0785711 55.3431 2.89774 64.7829 8.50392 72.647L9.58075 72.4119L27.0703 68.5479C27.5627 68.438 27.823 69.105 27.3918 69.3631L12.9133 77.96C17.1519 82.3681 22.2291 85.8815 27.8454 88.2928C33.4616 90.7042 39.5031 91.9648 45.6136 92.0002C60.0054 92.1024 72.889 85.5602 81.3812 75.246L37.5476 29.0313C36.3927 27.8135 35.5155 26.359 34.9766 24.7685C34.4377 23.178 34.2499 21.4893 34.4263 19.819C34.6027 18.1487 35.139 16.5367 35.9982 15.0943C36.8574 13.6518 38.019 12.4134 39.4028 11.4644ZM47.6295 63.6335L19.4074 66.0869C18.691 66.1449 17.9704 66.0471 17.2953 65.8C16.6201 65.553 16.0063 65.1626 15.496 64.6556C14.9857 64.1487 14.5909 63.5371 14.3387 62.863C14.0865 62.1889 13.983 61.4681 14.0351 60.7501C14.0873 60.0321 14.2939 59.3339 14.6408 58.7034C14.9877 58.0729 15.4667 57.525 16.0449 57.0973C16.6231 56.6697 17.2868 56.3723 17.9906 56.2257C18.6943 56.0791 19.4214 56.0867 20.1219 56.248L47.6933 62.7544C48.1858 62.8745 48.1296 63.5875 47.6295 63.6335ZM34.5647 38.7782L68.7859 66.5034C69.1763 66.8203 68.8241 67.4413 68.3521 67.2624L27.1902 51.6403C26.1752 51.2552 25.2558 50.6541 24.4954 49.8785C23.735 49.1028 23.1517 48.1711 22.786 47.1477C22.4202 46.1243 22.2806 45.0335 22.3768 43.9508C22.473 42.8681 22.8027 41.8192 23.3432 40.8765C23.8837 39.9339 24.622 39.1199 25.5072 38.4909C26.3924 37.8619 27.4034 37.4329 28.4703 37.2334C29.5373 37.0339 30.6347 37.0687 31.6869 37.3354C32.7391 37.6021 33.721 38.0944 34.5647 38.7782Z" fill="#FF7800"></path></g><defs><rect width="296" height="92" fill="white"></rect></defs></svg>